{
  "source": "C:\\Users\\Peter\\Desktop\\stuff\\MIUN\\quantitative_research\\video_compression\\videos\\BVI-HD\\Typing_1920x1080_60fps.mp4",
  "output": "C:\\Users\\Peter\\Desktop\\stuff\\MIUN\\quantitative_research\\video_compression\\compressed_videos\\BVI-HD\\h264\\12\\Typing_1920x1080_60fps_h264.mp4",
  "codec": "h264",
  "ok": "Input #0, mov,mp4,m4a,3gp,3g2,mj2, from 'C:\\Users\\Peter\\Desktop\\stuff\\MIUN\\quantitative_research\\video_compression\\videos\\BVI-HD\\Typing_1920x1080_60fps.mp4':\n  Metadata:\n    major_brand     : isom\n    minor_version   : 512\n    compatible_brands: isomiso2avc1mp41\n    encoder         : Lavf54.28.101\n  Duration: 00:00:05.00, start: 0.000000, bitrate: 203453 kb/s\n  Stream #0:0[0x1](und): Video: h264 (High 4:4:4 Predictive) (avc1 / 0x31637661), yuv420p(progressive), 1920x1080, 203448 kb/s, 60 fps, 60 tbr, 60 tbn (default)\n    Metadata:\n      handler_name    : VideoHandler\n      vendor_id       : [0][0][0][0]\n[out#0/mp4 @ 0000021d1dd41680] Codec AVOption b:a (set bitrate (in bits/s)) has not been used for any stream. The most likely reason is either wrong type (e.g. a video option with no video streams) or that it is a private option of some decoder which was not actually used for any stream.\nStream mapping:\n  Stream #0:0 -> #0:0 (h264 (native) -> h264 (libx264))\nPress [q] to stop, [?] for help\n[libx264 @ 0000021d1e310c00] using cpu capabilities: MMX2 SSE2Fast SSSE3 SSE4.2 AVX FMA3 BMI2 AVX2\n[libx264 @ 0000021d1e310c00] profile High, level 5.0, 4:2:0, 8-bit\n[libx264 @ 0000021d1e310c00] 264 - core 165 r3222 b35605a - H.264/MPEG-4 AVC codec - Copyleft 2003-2025 - http://www.videolan.org/x264.html - options: cabac=1 ref=5 deblock=1:0:0 analyse=0x3:0x113 me=hex subme=8 psy=1 psy_rd=1.00:0.00 mixed_ref=1 me_range=16 chroma_me=1 trellis=2 8x8dct=1 cqm=0 deadzone=21,11 fast_pskip=1 chroma_qp_offset=-2 threads=18 lookahead_threads=3 sliced_threads=0 nr=0 decimate=1 interlaced=0 bluray_compat=0 constrained_intra=0 bframes=3 b_pyramid=2 b_adapt=1 b_bias=0 direct=3 weightb=1 open_gop=0 weightp=2 keyint=250 keyint_min=25 scenecut=40 intra_refresh=0 rc_lookahead=50 rc=cbr mbtree=1 bitrate=12000 ratetol=1.0 qcomp=0.60 qpmin=0 qpmax=69 qpstep=4 vbv_maxrate=12000 vbv_bufsize=12000 nal_hrd=none filler=0 ip_ratio=1.40 aq=1:1.00\nOutput #0, mp4, to 'C:\\Users\\Peter\\Desktop\\stuff\\MIUN\\quantitative_research\\video_compression\\compressed_videos\\BVI-HD\\h264\\12\\Typing_1920x1080_60fps_h264.mp4':\n  Metadata:\n    major_brand     : isom\n    minor_version   : 512\n    compatible_brands: isomiso2avc1mp41\n    encoder         : Lavf62.3.100\n  Stream #0:0(und): Video: h264 (avc1 / 0x31637661), yuv420p(tv, progressive), 1920x1080, q=2-31, 12000 kb/s, 60 fps, 15360 tbn (default)\n    Metadata:\n      encoder         : Lavc62.11.100 libx264\n      handler_name    : VideoHandler\n      vendor_id       : [0][0][0][0]\n    Side data:\n      cpb: bitrate max/min/avg: 12000000/0/12000000 buffer size: 12000000 vbv_delay: N/A\nframe=    0 fps=0.0 q=0.0 size=       0KiB time=N/A bitrate=N/A speed=N/A elapsed=0:00:00.51    \nframe=    5 fps=4.9 q=27.0 size=       0KiB time=-00:00:00.01 bitrate=N/A speed=N/A elapsed=0:00:01.02    \nframe=   25 fps= 16 q=24.0 size=     512KiB time=00:00:00.38 bitrate=10942.7kbits/s speed=0.24x elapsed=0:00:01.59    \nframe=   49 fps= 23 q=23.0 size=     768KiB time=00:00:00.73 bitrate=8579.8kbits/s speed=0.346x elapsed=0:00:02.11    \nframe=   70 fps= 26 q=24.0 size=    1280KiB time=00:00:01.11 bitrate=9390.6kbits/s speed=0.416x elapsed=0:00:02.68    \nframe=   93 fps= 29 q=24.0 size=    1792KiB time=00:00:01.50 bitrate=9787.0kbits/s speed=0.464x elapsed=0:00:03.23    \nframe=  110 fps= 29 q=24.0 size=    2304KiB time=00:00:01.78 bitrate=10584.0kbits/s speed=0.47x elapsed=0:00:03.79    \nframe=  133 fps= 31 q=24.0 size=    2816KiB time=00:00:02.18 bitrate=10566.0kbits/s speed=0.503x elapsed=0:00:04.34    \nframe=  153 fps= 31 q=24.0 size=    3328KiB time=00:00:02.51 bitrate=10833.1kbits/s speed=0.514x elapsed=0:00:04.89    \nframe=  172 fps= 32 q=24.0 size=    3584KiB time=00:00:02.83 bitrate=10362.5kbits/s speed=0.524x elapsed=0:00:05.40    \nframe=  192 fps= 32 q=25.0 size=    4096KiB time=00:00:03.16 bitrate=10596.3kbits/s speed=0.533x elapsed=0:00:05.93    \nframe=  210 fps= 32 q=25.0 size=    4608KiB time=00:00:03.46 bitrate=10889.2kbits/s speed=0.534x elapsed=0:00:06.48    \nframe=  232 fps= 33 q=25.0 size=    5120KiB time=00:00:03.80 bitrate=11037.7kbits/s speed=0.542x elapsed=0:00:07.01    \nframe=  255 fps= 34 q=25.0 size=    5888KiB time=00:00:04.21 bitrate=11439.1kbits/s speed=0.558x elapsed=0:00:07.55    \nframe=  277 fps= 34 q=23.0 size=    6400KiB time=00:00:04.56 bitrate=11480.8kbits/s speed=0.566x elapsed=0:00:08.06    \n[mp4 @ 0000021d1e295a40] Starting second pass: moving the moov atom to the beginning of the file\n[out#0/mp4 @ 0000021d1dd41680] video:7033KiB audio:0KiB subtitle:0KiB other streams:0KiB global headers:0KiB muxing overhead: 0.063415%\nframe=  300 fps= 35 q=-1.0 Lsize=    7037KiB time=00:00:04.96 bitrate=11607.5kbits/s speed=0.586x elapsed=0:00:08.48    \n[libx264 @ 0000021d1e310c00] frame I:2     Avg QP:17.64  size:159961\n[libx264 @ 0000021d1e310c00] frame P:76    Avg QP:18.97  size: 49352\n[libx264 @ 0000021d1e310c00] frame B:222   Avg QP:21.09  size: 14101\n[libx264 @ 0000021d1e310c00] consecutive B-frames:  1.3%  0.0%  0.0% 98.7%\n[libx264 @ 0000021d1e310c00] mb I  I16..4:  3.6% 94.1%  2.4%\n[libx264 @ 0000021d1e310c00] mb P  I16..4:  1.2% 19.6%  0.2%  P16..4: 45.8% 13.1% 10.1%  0.0%  0.0%    skip:10.0%\n[libx264 @ 0000021d1e310c00] mb B  I16..4:  0.3%  4.2%  0.0%  B16..8: 36.1%  5.1%  0.7%  direct: 5.2%  skip:48.4%  L0:60.0% L1:35.1% BI: 4.8%\n[libx264 @ 0000021d1e310c00] 8x8 transform intra:92.9% inter:71.4%\n[libx264 @ 0000021d1e310c00] direct mvs  spatial:95.5% temporal:4.5%\n[libx264 @ 0000021d1e310c00] coded y,uvDC,uvAC intra: 76.2% 64.4% 11.9% inter: 14.3% 27.4% 2.3%\n[libx264 @ 0000021d1e310c00] i16 v,h,dc,p:  6% 27%  5% 62%\n[libx264 @ 0000021d1e310c00] i8 v,h,dc,ddl,ddr,vr,hd,vl,hu: 14% 25% 34%  3%  5%  3%  6%  4%  7%\n[libx264 @ 0000021d1e310c00] i4 v,h,dc,ddl,ddr,vr,hd,vl,hu:  9% 21%  6%  4% 22% 10% 17%  5%  7%\n[libx264 @ 0000021d1e310c00] i8c dc,h,v,p: 37% 39% 18%  6%\n[libx264 @ 0000021d1e310c00] Weighted P-Frames: Y:0.0% UV:0.0%\n[libx264 @ 0000021d1e310c00] ref P L0: 31.6%  8.5% 26.8% 14.8% 18.3%\n[libx264 @ 0000021d1e310c00] ref B L0: 44.9% 31.8% 18.2%  5.2%\n[libx264 @ 0000021d1e310c00] ref B L1: 81.4% 18.6%\n[libx264 @ 0000021d1e310c00] kb/s:11521.58\n",
  "seconds": 8.768395185470581,
  "probe_out": {}
}